<?xml version="1.0" standalone="no"?>
<!DOCTYPE svg PUBLIC "-//W3C//DTD SVG 20010904//EN"
 "http://www.w3.org/TR/2001/REC-SVG-20010904/DTD/svg10.dtd">
<svg version="1.0" xmlns="http://www.w3.org/2000/svg"
 width="486.000000pt" height="729.000000pt" viewBox="0 0 486.000000 729.000000"
 preserveAspectRatio="xMidYMid meet">
<metadata>
Created by potrace 1.13, written by Peter Selinger 2001-2015
</metadata>
<g transform="translate(0.000000,729.000000) scale(0.100000,-0.100000)"
fill="#000000" stroke="none">
<path d="M116 7172 c-3 -5 -3 -69 -1 -143 5 -129 10 -297 20 -629 12 -393 16
-516 20 -660 2 -85 7 -222 10 -305 3 -82 7 -229 10 -325 3 -96 7 -242 10 -325
2 -82 7 -231 10 -330 3 -99 8 -252 10 -340 3 -88 7 -230 10 -315 5 -169 12
-381 20 -645 3 -93 8 -240 10 -325 2 -85 7 -229 10 -320 3 -91 8 -235 10 -320
2 -85 7 -227 10 -315 3 -88 7 -236 10 -330 3 -93 7 -240 10 -325 10 -298 14
-447 21 -660 3 -118 7 -255 9 -305 1 -50 3 -123 4 -162 l1 -73 43 5 c23 2 57
9 76 14 19 6 37 8 41 6 4 -2 22 0 41 5 19 5 51 12 72 14 50 7 299 49 387 66
25 5 79 14 120 20 41 6 93 15 115 20 22 5 74 14 115 20 41 7 90 16 109 21 19
4 37 6 41 4 4 -2 22 0 41 5 19 6 54 13 78 16 25 3 47 7 50 9 3 2 30 6 58 10
29 3 66 10 82 15 16 4 32 6 35 3 2 -3 20 0 38 6 18 6 51 13 73 15 22 3 67 10
100 16 33 6 86 15 118 20 31 6 83 14 115 20 31 5 84 14 117 20 33 6 78 13 100
16 22 2 54 9 71 14 18 6 36 10 40 9 5 -2 29 1 54 5 25 5 52 10 60 11 8 1 35 6
60 11 25 4 49 7 54 5 4 -1 22 3 40 9 17 5 49 12 71 14 22 3 67 10 100 16 58
11 102 18 230 39 33 6 87 15 120 21 33 6 74 13 90 15 17 2 50 8 74 15 24 6 45
9 48 7 2 -3 18 -1 34 3 16 5 53 12 82 15 28 4 55 8 58 10 3 2 25 6 50 9 24 3
59 10 78 16 19 5 37 7 41 5 4 -2 22 0 41 6 19 5 48 12 64 13 68 8 411 67 504
87 24 6 45 8 48 6 2 -3 28 1 56 9 29 8 64 14 79 14 15 0 29 4 32 8 3 5 8 44
11 88 3 43 12 148 20 233 8 84 13 156 11 160 -2 3 -7 60 -10 126 -4 66 -9 147
-11 180 -2 33 -7 101 -10 150 -3 50 -8 128 -11 175 -10 135 -10 855 0 1080 18
401 24 640 31 1170 3 234 8 562 10 730 3 168 7 487 10 710 3 223 7 521 10 663
2 141 1 257 -3 257 -4 0 -8 -15 -8 -32 -4 -109 -14 -492 -20 -718 -6 -278 -8
-418 -19 -1135 -4 -242 -8 -456 -10 -475 -2 -19 -6 -123 -10 -230 -4 -107 -9
-198 -12 -203 -2 -4 -7 -81 -9 -172 -3 -90 -7 -215 -10 -277 -7 -157 -15 -543
-14 -663 4 -372 8 -552 13 -565 4 -8 5 -31 3 -50 -2 -19 -1 -39 2 -45 4 -5 7
-46 8 -91 0 -44 4 -96 7 -115 5 -30 22 -437 19 -464 -1 -5 -6 -64 -11 -130 -6
-66 -13 -147 -17 -180 -4 -33 -7 -78 -7 -100 1 -22 -1 -34 -4 -27 -4 10 -7 10
-17 -1 -6 -8 -69 -26 -141 -41 -145 -30 -165 -33 -215 -42 -19 -3 -60 -12 -90
-19 -30 -7 -75 -16 -100 -20 -128 -18 -163 -25 -250 -49 -52 -14 -96 -25 -98
-25 -2 1 -25 -3 -105 -17 -12 -2 -44 -8 -72 -13 -27 -5 -81 -12 -120 -16 -38
-3 -99 -11 -135 -16 -98 -14 -400 -57 -445 -63 -72 -9 -120 -17 -141 -21 -11
-2 -45 -7 -75 -10 -30 -4 -103 -15 -164 -26 -60 -10 -128 -21 -150 -25 -22 -3
-43 -8 -48 -11 -9 -5 -30 -9 -151 -28 -50 -8 -120 -21 -156 -28 -36 -8 -87
-18 -115 -22 -27 -5 -52 -9 -55 -10 -19 -5 -121 -25 -147 -29 -17 -2 -36 -7
-41 -10 -5 -3 -69 -17 -143 -30 -74 -14 -145 -28 -159 -31 -51 -10 -86 -16
-120 -19 -19 -2 -73 -10 -120 -19 -47 -9 -121 -21 -165 -27 -44 -6 -102 -16
-130 -21 -27 -6 -68 -12 -90 -15 -22 -3 -51 -8 -65 -10 -97 -18 -271 -44 -298
-44 -46 0 -53 24 -58 215 -3 88 -7 194 -9 235 -1 41 -6 172 -10 290 -4 118 -8
242 -10 275 -3 57 -9 241 -20 565 -3 80 -7 204 -10 275 -3 72 -7 240 -10 375
-2 135 -7 373 -11 530 -4 157 -8 431 -10 610 -3 375 -15 873 -29 1225 -3 66
-7 248 -10 405 -16 791 -24 1105 -30 1160 -3 25 -7 108 -11 185 -5 136 -9 203
-18 295 -2 25 -7 83 -10 130 -4 47 -9 102 -12 122 -12 90 -11 160 3 174 18 18
2 18 324 -11 151 -13 312 -26 359 -29 47 -3 117 -8 155 -11 39 -3 115 -7 170
-10 55 -2 132 -7 170 -10 140 -11 192 -14 280 -20 50 -3 115 -8 145 -11 30 -3
99 -7 152 -9 99 -4 157 -8 368 -25 63 -5 158 -12 210 -15 52 -3 121 -8 154
-11 32 -3 97 -7 145 -9 338 -13 405 -16 481 -20 47 -3 155 -7 240 -11 195 -7
278 -11 410 -18 161 -9 305 -16 415 -21 89 -4 217 -11 370 -20 28 -1 68 -5 90
-9 40 -7 40 -7 40 -51 -1 -25 2 -45 6 -45 5 0 20 101 15 107 -4 5 -320 31
-330 27 -7 -3 -83 2 -170 10 -87 9 -162 13 -167 11 -4 -3 -80 2 -169 10 -89 8
-165 13 -169 10 -5 -2 -80 2 -167 11 -87 8 -163 13 -170 10 -6 -2 -81 2 -165
10 -85 8 -161 13 -170 11 -9 -3 -79 1 -155 8 -77 7 -168 13 -204 13 -36 1
-112 5 -170 11 -58 6 -132 10 -165 10 -33 0 -109 5 -170 10 -60 6 -130 10
-155 10 -25 -1 -110 4 -190 10 -80 6 -226 15 -325 21 -99 6 -245 15 -325 21
-80 6 -165 11 -190 10 -25 0 -92 4 -150 10 -58 6 -134 10 -170 11 -36 0 -128
6 -205 13 -77 7 -144 11 -148 8 -8 -5 -230 12 -294 23 -17 2 -34 1 -37 -4z"/>
</g>
</svg>
